<svg xmlns="http://www.w3.org/2000/svg" viewBox="0 0 512 512" fill="white">
      <path d="M400 0H112C50.144 0 0 50.144 0 112v288c0 61.856 50.144 112 112 112h288c61.856 0 112-50.144 112-112V112C512 50.144 461.856 0 400 0zm80 400c0 44.183-35.817 80-80 80H112c-44.183 0-80-35.817-80-80V112c0-44.183 35.817-80 80-80h288c44.183 0 80 35.817 80 80v288z" />
      <path d="M160 112h-32c-8.837 0-16 7.163-16 16v32c0 8.837 7.163 16 16 16h32c8.837 0 16-7.163 16-16v-32c0-8.837-7.163-16-16-16zm0 112h-32c-8.837 0-16 7.163-16 16v32c0 8.837 7.163 16 16 16h32c8.837 0 16-7.163 16-16v-32c0-8.837-7.163-16-16-16zm0 112h-32c-8.837 0-16 7.163-16 16v32c0 8.837 7.163 16 16 16h32c8.837 0 16-7.163 16-16v-32c0-8.837-7.163-16-16-16zm48-208h192v32H208zm0 112h192v32H208zm0 112h192v32H208z" />
    </svg>